<svg width="64" height="64" viewBox="0 0 64 64" fill="none" xmlns="http://www.w3.org/2000/svg">
  <rect width="64" height="64" rx="14" fill="#0B0D10"/>
  <path d="M7 19C7 12.373 12.373 7 19 7H45C51.627 7 57 12.373 57 19V45C57 51.627 51.627 57 45 57H19C12.373 57 7 51.627 7 45V19Z" fill="url(#card)"/>
  <path d="M7 19C7 12.373 12.373 7 19 7H45C51.627 7 57 12.373 57 19V45C57 51.627 51.627 57 45 57H19C12.373 57 7 51.627 7 45V19Z" stroke="#EEE8AA" stroke-width="2"/>

  <path d="M18.3 43.4C21.1 45.1 24.8 46 28.4 46C34.1 46 38.2 43.2 38.2 38.7C38.2 34.8 35.1 32.9 29.9 31.8C26.5 31.1 25.1 30.4 25.1 28.8C25.1 27.3 26.5 26.4 28.9 26.4C31.4 26.4 33.9 27.2 36.2 28.6L38.6 23.5C36 21.8 32.5 20.8 29 20.8C23.2 20.8 19.2 24 19.2 28.8C19.2 32.8 22.2 34.6 27.5 35.8C30.8 36.6 32.2 37.2 32.2 38.8C32.2 40.1 31 40.8 28.5 40.8C25.6 40.8 22.6 39.9 20.1 38.4L18.3 43.4Z" fill="#EEE8AA"/>
  <path d="M37.8 45.5L45 21H51.7L58.8 45.5H52.6L51.5 41.1H45L43.9 45.5H37.8ZM46.2 36.2H50.3L48.3 28.2L46.2 36.2Z" fill="#8DDBD6"/>

  <path d="M14 16H22.5M14 16V24.5M14 16L24 26" stroke="#8DDBD6" stroke-width="2.4" stroke-linecap="round"/>
  <circle cx="14" cy="16" r="3.2" fill="#EEE8AA"/>
  <circle cx="24" cy="26" r="2.5" fill="#8DDBD6"/>
  <circle cx="22.5" cy="16" r="2" fill="#8DDBD6"/>
  <circle cx="14" cy="24.5" r="2" fill="#8DDBD6"/>

  <defs>
    <linearGradient id="card" x1="9" y1="8" x2="58" y2="56" gradientUnits="userSpaceOnUse">
      <stop stop-color="#1A1D22"/>
      <stop offset="0.5" stop-color="#111214"/>
      <stop offset="1" stop-color="#082725"/>
    </linearGradient>
  </defs>
</svg>
